<svg width="70" height="61" viewBox="0 0 70 61" fill="none" xmlns="http://www.w3.org/2000/svg">
<path d="M63.4375 30.5L52.5 30.5L52.5 21.7857C52.5 16.9793 56.4238 13.0714 61.25 13.0714L62.3437 13.0714C64.1621 13.0714 65.625 11.6145 65.625 9.80358L65.625 3.26787C65.625 1.45693 64.1621 1.12185e-05 62.3437 1.09005e-05L61.25 1.07093e-05C49.1641 8.59612e-06 39.375 9.74911 39.375 21.7857L39.375 54.4643C39.375 58.0726 42.3144 61 45.9375 61L63.4375 61C67.0605 61 70 58.0726 70 54.4643L70 37.0357C70 33.4275 67.0605 30.5 63.4375 30.5ZM24.0625 30.5L13.125 30.5L13.125 21.7857C13.125 16.9792 17.0488 13.0714 21.875 13.0714L22.9687 13.0714C24.7871 13.0714 26.25 11.6145 26.25 9.80358L26.25 3.26786C26.25 1.45692 24.7871 4.33391e-06 22.9687 4.01598e-06L21.875 3.82475e-06C9.78906 1.71157e-06 -1.70459e-06 9.74911 -3.80914e-06 21.7857L-9.52284e-06 54.4643C-1.01537e-05 58.0726 2.93944 61 6.56249 61L24.0625 61C27.6855 61 30.625 58.0726 30.625 54.4643L30.625 37.0357C30.625 33.4275 27.6855 30.5 24.0625 30.5Z" fill="#3AAA35" fill-opacity="0.2"/>
</svg>
