<svg width="70" height="61" viewBox="0 0 70 61" fill="none" xmlns="http://www.w3.org/2000/svg">
<path d="M6.5625 30.5L17.5 30.5L17.5 39.2143C17.5 44.0208 13.5762 47.9286 8.75001 47.9286L7.65626 47.9286C5.8379 47.9286 4.37501 49.3855 4.37501 51.1964L4.37501 57.7321C4.37501 59.5431 5.8379 61 7.65626 61L8.75001 61C20.8359 61 30.625 51.2509 30.625 39.2143L30.625 6.53571C30.625 2.92745 27.6855 -3.93015e-06 24.0625 -3.61341e-06L6.5625 -2.08351e-06C2.93946 -1.76678e-06 2.55253e-06 2.92745 2.86797e-06 6.53571L4.39163e-06 23.9643C4.70707e-06 27.5725 2.93946 30.5 6.5625 30.5ZM45.9375 30.5L56.875 30.5L56.875 39.2143C56.875 44.0208 52.9512 47.9286 48.125 47.9286L47.0313 47.9286C45.2129 47.9286 43.75 49.3855 43.75 51.1964L43.75 57.7321C43.75 59.5431 45.2129 61 47.0313 61L48.125 61C60.2109 61 70 51.2509 70 39.2143L70 6.53571C70 2.92744 67.0605 -7.37242e-06 63.4375 -7.05568e-06L45.9375 -5.52578e-06C42.3145 -5.20905e-06 39.375 2.92745 39.375 6.53571L39.375 23.9643C39.375 27.5725 42.3145 30.5 45.9375 30.5Z" fill="#3AAA35" fill-opacity="0.2"/>
</svg>
