<?xml version="1.0" encoding="UTF-8"?>
<svg id="Layer_2" data-name="Layer 2" xmlns="http://www.w3.org/2000/svg" viewBox="0 0 251.54 231">
  <defs>
    <style>
      .cls-1 {
        fill: #f6b376;
      }

      .cls-2 {
        fill: #adadd2;
      }

      .cls-3 {
        fill: #4c3c8c;
      }
    </style>
  </defs>
  <g id="Layer_1-2" data-name="Layer 1">
    <g>
      <circle class="cls-2" cx="181.08" cy="93.97" r="32.3"/>
      <path class="cls-1" d="M136.4,118.02H7.82v83.08H136.4V118.02Z"/>
      <path class="cls-3" d="M245.88,230.99c-1.5,0-2.95-.6-4.01-1.66-1.07-1.07-1.66-2.51-1.66-4.02,0-49.88-10.75-57.99-23.21-67.41l-1.41-1.08c-10.16-7.72-38.78-12.05-57.73-6.12-1.44,.45-2.99,.31-4.33-.39-1.33-.7-2.33-1.9-2.78-3.34-.45-1.44-.31-3,.39-4.33,.7-1.34,1.9-2.34,3.33-2.79,20.94-6.57,53.98-2.71,67.98,7.91l1.37,1.05c14.26,10.77,27.72,20.94,27.72,76.5,0,1.51-.6,2.95-1.66,4.02-1.06,1.07-2.5,1.67-4,1.67h0Z"/>
      <path class="cls-3" d="M193.39,219.62H86.32v-9.47h47.34c2.81,0,5.5-1.12,7.49-3.1,1.99-1.99,3.11-4.69,3.12-7.5V121.55c0-2.81-1.13-5.51-3.12-7.5-1.99-1.99-4.68-3.1-7.49-3.1H10.58c-2.8,0-5.49,1.12-7.48,3.11-1.98,1.99-3.1,4.68-3.1,7.49v77.99c0,2.81,1.12,5.51,3.1,7.49,1.98,1.99,4.67,3.11,7.48,3.11H57.92v9.47h-21.52c-1.5,0-2.95,.6-4.01,1.67-1.07,1.07-1.66,2.51-1.66,4.02s.6,2.96,1.66,4.02c1.06,1.07,2.51,1.67,4.01,1.67H193.39c1.51,0,2.95-.6,4.01-1.67,1.07-1.07,1.66-2.51,1.66-4.02s-.6-2.96-1.66-4.02c-1.06-1.07-2.51-1.67-4.01-1.67h0Zm-118.39,0h-5.73v-9.47h5.73v9.47Zm-63.65-20.85V122.33h121.56v76.44H11.35Z"/>
      <path class="cls-3" d="M212.68,230.99c-1.51,0-2.95-.6-4.01-1.66-1.07-1.07-1.67-2.51-1.67-4.02v-34.07c.03-1.49,.65-2.9,1.71-3.94,1.06-1.04,2.48-1.62,3.97-1.62s2.9,.58,3.97,1.62c1.06,1.04,1.67,2.45,1.7,3.94v34.07c0,1.51-.6,2.95-1.66,4.02-1.06,1.07-2.51,1.66-4.01,1.66Z"/>
      <path class="cls-3" d="M39.56,170.92c-1.1,0-2.17-.32-3.09-.92-.92-.6-1.65-1.46-2.1-2.46-.45-1.01-.59-2.12-.41-3.21,.17-1.09,.66-2.1,1.4-2.92l11.98-13.26c.85-.94,2-1.57,3.26-1.79,1.26-.21,2.54,0,3.66,.61l12.4,6.75,19.1-15.83c.6-.49,1.29-.86,2.04-1.07,.74-.22,1.52-.28,2.29-.19,.77,.1,1.51,.35,2.18,.75,.67,.4,1.25,.93,1.7,1.55l13.24,18.28c.88,1.22,1.25,2.74,1.01,4.23-.24,1.49-1.05,2.82-2.27,3.71-1.22,.89-2.74,1.25-4.22,1.01-1.49-.24-2.82-1.06-3.7-2.28l-9.69-13.38-17.41,14.42c-.87,.73-1.94,1.18-3.07,1.29-1.13,.11-2.27-.12-3.26-.67l-11.85-6.45-8.98,9.94c-.53,.59-1.18,1.06-1.9,1.38-.72,.32-1.51,.49-2.3,.49Z"/>
      <path class="cls-3" d="M206.84,45.87c-1.51,0-2.95-.6-4.02-1.67-1.06-1.07-1.66-2.51-1.66-4.02V13.2c0-.48-.19-.95-.53-1.29-.34-.34-.8-.54-1.28-.54H13.87c-.48,0-.94,.19-1.29,.54-.34,.34-.53,.81-.53,1.29V84.4c-.03,1.49-.64,2.9-1.7,3.94-1.06,1.04-2.49,1.62-3.97,1.62s-2.91-.58-3.97-1.62c-1.06-1.04-1.67-2.45-1.71-3.94V13.2c0-3.5,1.39-6.85,3.86-9.33C7.04,1.4,10.38,0,13.87,0H199.35c3.49,0,6.83,1.4,9.3,3.87,2.47,2.47,3.86,5.83,3.86,9.33v26.98c0,1.51-.6,2.95-1.66,4.02-1.06,1.07-2.51,1.67-4.01,1.67Z"/>
      <path class="cls-3" d="M181.11,131.48c-8.09-.01-15.96-2.67-22.41-7.57-6.45-4.9-11.13-11.77-13.33-19.58-2.2-7.81-1.8-16.12,1.14-23.68,2.94-7.56,8.26-13.95,15.15-18.2,6.89-4.25,14.98-6.14,23.03-5.37,8.06,.77,15.64,4.15,21.61,9.63,5.96,5.48,9.98,12.76,11.44,20.74,1.47,7.98,.3,16.22-3.33,23.46-3.08,6.21-7.83,11.43-13.72,15.06-5.89,3.64-12.67,5.54-19.59,5.5Zm0-63.24c-5.12,0-10.12,1.53-14.38,4.38-4.26,2.85-7.57,6.91-9.53,11.65-1.96,4.74-2.46,9.96-1.46,14.99,1,5.03,3.47,9.65,7.1,13.28,3.62,3.62,8.24,6.09,13.26,7.09,5.02,1,10.23,.48,14.96-1.49,4.73-1.97,8.77-5.3,11.61-9.57,2.84-4.27,4.36-9.29,4.35-14.42-.01-6.88-2.74-13.47-7.6-18.33-4.86-4.86-11.44-7.58-18.3-7.58h0Z"/>
    </g>
  </g>
</svg>