<?xml version="1.0" encoding="UTF-8"?><svg xmlns="http://www.w3.org/2000/svg" xmlns:xlink="http://www.w3.org/1999/xlink" viewBox="0 0 248.64 197.65"><defs><style>.ac{fill:#fff;}.ad{fill:#d2e9f9;}.ae{fill:#0bbab8;}.af{fill:#4c3d8f;}.ag{clip-path:url(#e);}.ah{fill:none;}</style><clipPath id="e"><rect class="ah" y="0" width="248.64" height="197.65"/></clipPath></defs><g id="a"/><g id="b"><g id="c"><g id="d" transform="translate(0 0)"><g class="ag"><g id="f" transform="translate(0 0)"><path id="g" class="ad" d="M88.8,10.81C107.88-.2,125.25-1.87,138.29,4.31l10.49,5.94v.05c-13.01-6.05-30.29-4.33-49.25,6.61C59.05,40.29,26.24,96.88,26.24,143.33c0,22.54,7.73,38.55,20.32,46.39l-7.03-4.11c-14.75-6.87-24.01-23.71-24.01-48.39,0-46.45,32.81-103.04,73.29-126.41"/><path id="h" class="af" d="M46.56,190.46c-.13,0-.26-.03-.38-.1l-7.03-4.11c-15.47-7.2-24.38-25.08-24.38-49.03,0-46.61,33.04-103.61,73.66-127.06C100.11,3.42,111.3,0,121.69,0c5.84-.07,11.62,1.18,16.92,3.63l10.54,5.97c.24,.14,.38,.39,.38,.66,0,.26-.14,.5-.35,.65-.21,.14-.48,.17-.71,.07-5.04-2.29-10.52-3.44-16.05-3.38-10.13,0-21.07,3.35-32.52,9.97C59.7,40.78,26.99,97.2,26.99,143.33c0,21.49,7.09,37.74,19.97,45.75,.35,.22,.46,.68,.24,1.03-.14,.22-.38,.35-.64,.35M121.69,1.5c-10.13,0-21.07,3.35-32.52,9.96C48.97,34.67,16.26,91.09,16.26,137.22c0,22.93,8.29,40.11,22.78,47.33-8.8-9.22-13.55-23.5-13.55-41.22,0-46.61,33.04-103.61,73.66-127.06,11.68-6.74,22.88-10.16,33.27-10.16,3.14-.01,6.26,.33,9.32,1.02l-3.82-2.17c-5.09-2.35-10.63-3.53-16.23-3.46"/><path id="i" class="ac" d="M26.24,143.33c0,46.45,32.81,65.15,73.29,41.78s73.29-79.96,73.29-126.41S140-6.45,99.53,16.92,26.24,96.88,26.24,143.33"/><path id="j" class="af" d="M66.64,195.93h0c-25.38,0-41.14-20.16-41.14-52.6,0-46.61,33.04-103.61,73.66-127.06,11.68-6.74,22.88-10.16,33.27-10.16,25.38,0,41.14,20.15,41.14,52.6,0,46.61-33.04,103.6-73.66,127.06-11.68,6.74-22.88,10.16-33.27,10.16M132.42,7.6c-10.13,0-21.07,3.35-32.52,9.97C59.7,40.78,26.99,97.2,26.99,143.33c0,31.52,15.19,51.1,39.65,51.1h0c10.12,0,21.06-3.35,32.52-9.96,40.2-23.21,72.91-79.63,72.91-125.76,0-31.52-15.19-51.1-39.64-51.1"/><path id="k" class="ad" d="M40.2,135.27c0,37.6,26.56,52.74,59.33,33.83s59.33-64.73,59.33-102.33-26.56-52.74-59.33-33.82c-32.77,18.92-59.32,64.73-59.32,102.33"/><path id="l" class="af" d="M72.9,177.99h0c-20.63,0-33.45-16.37-33.45-42.72,0-37.78,26.78-83.97,59.7-102.97,9.48-5.47,18.57-8.25,27-8.25,20.63,0,33.44,16.37,33.44,42.72,0,37.78-26.78,83.97-59.7,102.98-9.48,5.47-18.56,8.25-27,8.25M126.16,25.54c-8.17,0-17.01,2.71-26.26,8.05-32.51,18.77-58.95,64.38-58.95,101.68,0,25.43,12.24,41.23,31.95,41.23h0c8.17,0,17-2.71,26.25-8.05,32.51-18.77,58.95-64.38,58.95-101.69,0-25.43-12.24-41.23-31.95-41.23"/><path id="m" class="ac" d="M51.44,128.78c0,30.47,21.53,42.75,48.09,27.42s48.09-52.47,48.09-82.94-21.53-42.75-48.09-27.41c-26.56,15.34-48.08,52.46-48.08,82.94"/><path id="n" class="af" d="M77.95,163.55h0c-16.81,0-27.25-13.32-27.25-34.77,0-30.66,21.74-68.16,48.46-83.59,7.7-4.45,15.09-6.7,21.96-6.7,16.81,0,27.25,13.32,27.25,34.77,0,30.66-21.74,68.16-48.46,83.59-7.7,4.45-15.09,6.7-21.96,6.7M121.11,39.98c-6.6,0-13.73,2.19-21.21,6.5-26.31,15.19-47.71,52.1-47.71,82.29,0,20.52,9.87,33.27,25.76,33.27h0c6.6,0,13.73-2.19,21.21-6.51,26.31-15.19,47.71-52.1,47.71-82.29,0-20.52-9.87-33.27-25.76-33.27"/><path id="o" class="ad" d="M62.06,122.65c0,23.75,16.78,33.31,37.47,21.36,20.69-11.95,37.47-40.88,37.47-64.63s-16.78-33.31-37.47-21.36-37.47,40.88-37.47,64.63"/><path id="p" class="af" d="M82.71,149.91h0c-13.2,0-21.4-10.44-21.4-27.25,0-23.95,16.98-53.23,37.84-65.28,6.03-3.48,11.81-5.25,17.19-5.25,13.2,0,21.4,10.44,21.4,27.26,0,23.95-16.98,53.23-37.84,65.28-6.03,3.48-11.81,5.25-17.19,5.25M116.35,53.62c-5.11,0-10.65,1.7-16.45,5.05-20.46,11.81-37.1,40.51-37.1,63.98,0,15.89,7.63,25.76,19.9,25.76h0c5.11,0,10.64-1.7,16.44-5.05,20.45-11.81,37.1-40.51,37.1-63.98,0-15.89-7.62-25.76-19.9-25.76"/><path id="q" class="ac" d="M72.05,116.88c0,17.41,12.3,24.43,27.48,15.67s27.48-29.98,27.48-47.39-12.3-24.43-27.48-15.67-27.48,29.98-27.48,47.39"/><path id="r" class="af" d="M87.2,137.07c-9.65,0-15.89-7.92-15.89-20.19,0-17.62,12.49-39.17,27.85-48.04,3.82-2.39,8.21-3.72,12.71-3.88,9.65,0,15.89,7.93,15.89,20.19,0,17.63-12.5,39.17-27.85,48.04-3.82,2.38-8.2,3.72-12.71,3.87m24.67-70.6c-4.24,.16-8.37,1.42-11.96,3.68-14.94,8.62-27.11,29.6-27.11,46.75,0,11.53,5.52,18.69,14.4,18.69,4.24-.16,8.36-1.42,11.96-3.67,14.94-8.63,27.1-29.6,27.1-46.75,0-11.53-5.52-18.69-14.4-18.69"/><path id="s" class="ae" d="M84.24,109.85c0,9.69,6.85,13.59,15.29,8.72s15.29-16.68,15.29-26.37-6.85-13.59-15.29-8.72-15.29,16.68-15.29,26.37"/><path id="t" class="af" d="M92.67,121.41h0c-5.57,0-9.17-4.54-9.17-11.56,0-9.91,7.03-22.03,15.67-27.02,2.18-1.36,4.67-2.12,7.24-2.2,5.57,0,9.17,4.54,9.17,11.57,0,9.91-7.03,22.03-15.66,27.02-2.18,1.36-4.67,2.12-7.24,2.2m13.73-39.29c-2.3,.09-4.54,.78-6.49,2-8.23,4.75-14.92,16.29-14.92,25.73,0,6.21,2.94,10.07,7.68,10.07,2.3-.1,4.53-.78,6.49-2,8.22-4.75,14.92-16.29,14.92-25.72,0-6.21-2.94-10.07-7.68-10.07"/><path id="u" class="ae" d="M236.56,181.32l7.88-1.06c2.18-.3,3.71-2.31,3.41-4.5-.22-1.58-1.35-2.88-2.89-3.3l-44.17-12.08,35.77,20.94Z"/><path id="v" class="af" d="M236.56,182.07c-.13,0-.26-.03-.38-.1l-35.77-20.94c-.32-.19-.46-.59-.31-.93,.14-.35,.52-.54,.89-.43l44.17,12.07c2.52,.69,4.01,3.29,3.32,5.82-.5,1.84-2.05,3.19-3.94,3.45l-7.88,1.06s-.07,0-.1,0m-30.52-19.47l30.67,17.95,7.63-1.03c1.77-.24,3.02-1.87,2.78-3.65-.17-1.29-1.1-2.35-2.36-2.69l-38.72-10.58Z"/><path id="w" class="ac" d="M242.28,180.75s-.02-.09-.12-.15c0,0-114.05-66.88-126.53-74.1-8.75-5.06-14.83-5.65-14.83-5.65-.1-.05-.23-.03-.32,.03-.27,.17-.44,.47-.46,.79-.01,.11,.04,.22,.13,.29,0,0,3.56,4.85,12.28,9.9,12.46,7.22,126.54,74.07,126.54,74.07,.03,.02,.04,0,.07,.01,.51,.25,1.11,.19,1.57-.14,1.29-.84,2.1-2.24,2.19-3.78,.03-.48-.16-.95-.52-1.27"/><path id="x" class="af" d="M239.64,186.84c-.3,0-.6-.07-.87-.2-.05-.02-.1-.04-.15-.06-1.16-.68-114.24-66.94-126.55-74.08-8.25-4.78-11.93-9.35-12.45-10.02-.22-.21-.34-.51-.33-.81,.02-.59,.33-1.12,.83-1.43,.24-.17,.54-.22,.82-.13,.67,.07,6.62,.85,15.08,5.74,12.33,7.14,125.39,73.44,126.53,74.1,.16,.09,.29,.22,.38,.38,.43,.46,.66,1.07,.63,1.69-.09,1.8-1.04,3.45-2.56,4.43-.41,.25-.87,.39-1.35,.4m-.38-1.62h.01c.11,.07,.24,.11,.37,.12,.21-.01,.42-.08,.6-.2,1.06-.7,1.73-1.86,1.82-3.13,.03-.26-.07-.51-.25-.69-.05-.04-.1-.1-.14-.15-4.27-2.51-114.25-67-126.4-74.04-7.91-4.57-13.65-5.44-14.44-5.54,.52,.66,4.15,5.07,11.99,9.61,12.16,7.04,122.53,71.72,126.44,74.01"/><path id="y" class="ae" d="M237.29,178.31l-36.53-21.05,28.51-2.33c6.79-.56,12.74,4.5,13.3,11.28,.25,3.07-.65,6.11-2.53,8.55l-2.74,3.55Z"/><path id="a`" class="af" d="M237.29,179.06c-.13,0-.26-.03-.37-.1l-36.53-21.04c-.36-.2-.48-.66-.28-1.02,.12-.21,.34-.35,.59-.37l28.51-2.33c7.2-.59,13.51,4.77,14.1,11.97,.27,3.25-.69,6.48-2.69,9.06l-2.75,3.56c-.14,.18-.36,.29-.59,.29m-34.08-21.25l33.89,19.53,2.35-3.04c3.91-5.06,2.98-12.34-2.09-16.25-2.29-1.77-5.15-2.61-8.03-2.38l-26.12,2.14Z"/><path id="aa" class="ae" d="M234.99,182.25l-.9,3.22c-1.53,5.49-7.21,8.7-12.7,7.17-2.45-.68-4.57-2.25-5.93-4.4l-17-26.72,36.53,20.72Z"/><path id="ab" class="af" d="M224.12,193.78c-3.78,.03-7.3-1.91-9.28-5.12l-17-26.72c-.19-.29-.15-.67,.09-.92,.24-.25,.61-.3,.91-.14l36.53,20.72c.3,.17,.44,.52,.35,.85l-.9,3.22c-1.31,4.82-5.71,8.15-10.7,8.1m-23.42-30.11l15.39,24.19c1.72,2.78,4.76,4.46,8.02,4.43,4.32,.04,8.12-2.84,9.26-7l.74-2.66-33.42-18.95Z"/></g></g></g></g></g></svg>