<?xml version="1.0" encoding="UTF-8"?><svg xmlns="http://www.w3.org/2000/svg" xmlns:xlink="http://www.w3.org/1999/xlink" viewBox="0 0 140.17 213.09"><defs><style>.r{fill:#fff;}.s{fill:#d2e9f9;}.t{fill:#0bbab8;}.u{fill:#4c3d8f;}.v{clip-path:url(#d);}.w{fill:none;}</style><clipPath id="d"><rect class="w" y="0" width="140.17" height="213.09"/></clipPath></defs><g id="a"/><g id="b"><g id="c"><g class="v"><g id="e" transform="translate(0 0)"><path id="f" class="r" d="M109.86,144.41l-19.36,10.43,28.87,53.25h0l.04,.08c1.68,3.11,7.37,3.3,12.71,.42s8.32-7.74,6.64-10.85l-.05-.08h0l-28.86-53.25Z"/><path id="g" class="u" d="M124.75,211.58h0c-2.91,0-5.16-1.08-6.17-2.96l-28.91-53.32c-.25-.46-.08-1.04,.38-1.29l19.35-10.43c.46-.25,1.04-.07,1.29,.38l28.86,53.25c2,3.71-1.09,9.04-6.98,12.21-2.4,1.34-5.08,2.08-7.82,2.16m-4.54-3.94l.03,.06c1.36,2.52,6.79,2.56,11.43,.06,4.79-2.58,7.66-6.96,6.25-9.56l-28.45-52.49-17.68,9.52,28.41,52.41Z"/><path id="h" class="u" d="M109.88,144.45c1.68,3.11-1.3,7.97-6.64,10.85s-11.03,2.69-12.71-.42,1.3-7.97,6.64-10.85,11.03-2.69,12.71,.42"/><path id="i" class="u" d="M95.87,158.29c-2.91,0-5.16-1.08-6.17-2.96-1.96-3.63,1.13-8.96,7.02-12.14,2.4-1.34,5.08-2.08,7.83-2.16,2.91,0,5.16,1.08,6.17,2.96,1.96,3.63-1.13,8.96-7.02,12.14-2.4,1.34-5.08,2.08-7.83,2.15m8.68-15.35c-2.43,.08-4.81,.74-6.93,1.93-4.79,2.58-7.65,6.96-6.25,9.56,1.34,2.48,6.78,2.54,11.42,.04,4.79-2.58,7.65-6.96,6.25-9.56-.67-1.25-2.31-1.97-4.5-1.97"/><path id="j" class="t" d="M97.19,130.28l-11.51,6.21,8.18,15.19h0v.03c1.01,1.87,4.41,1.98,7.58,.27s4.95-4.6,3.95-6.45v-.03l-.02-.02-8.18-15.19Z"/><path id="k" class="u" d="M97.07,154.13h0c-1.6,.14-3.16-.62-4.02-1.98l-8.2-15.22c-.25-.46-.08-1.04,.38-1.28l11.51-6.2c.46-.25,1.03-.08,1.28,.38h0l8.18,15.19c1.3,2.39-.61,5.79-4.3,7.78-1.48,.83-3.14,1.28-4.83,1.33m-10.1-17.26l7.73,14.35c.55,.74,1.45,1.13,2.37,1.01,1.38-.04,2.73-.42,3.93-1.1,2.9-1.56,4.2-3.97,3.56-5.17l-7.76-14.39-9.83,5.3Z"/><path id="l" class="s" d="M64.7,8.2C50.37-.07,37.37-1.02,27.86,4.13c-.27,.14-13.91,7.76-14.34,8.42,9.68-7.3,24-7.19,39.99,2.04,29.14,16.82,52.77,57.57,52.77,91.01,0,17.06-6.15,28.92-16.05,34.21,.9-.27,1.77-.65,2.58-1.13,.28-.16,9.58-5.79,9.86-5.96,9.16-5.6,14.8-17.17,14.8-33.5,0-33.44-23.62-74.18-52.76-91.01"/><path id="m" class="u" d="M90.22,140.76c-.52,0-.95-.43-.95-.95,0-.35,.19-.67,.5-.84,10.02-5.36,15.54-17.21,15.54-33.38,0-33.08-23.46-73.54-52.29-90.18-8.18-4.72-15.99-7.12-23.2-7.12-4.45-.06-8.84,1-12.77,3.1-.76,.45-1.43,.85-1.94,1.18-.35,.24-.69,.48-1.03,.73-.42,.32-1.01,.24-1.33-.18-.24-.32-.26-.76-.04-1.1,.13-.2,.29-.37,1.36-1.05,.66-.44,1.34-.86,2.04-1.24,4.12-2.45,11.03-6.31,11.29-6.45C31.6,1.07,36.27-.06,41.01,0,48.57,0,56.7,2.48,65.17,7.38c29.35,16.95,53.24,58.14,53.24,91.83,0,16.11-5.42,28.3-15.25,34.31-.1,.06-9.59,5.81-9.89,5.98-.88,.51-1.81,.92-2.79,1.22-.08,.02-.17,.03-.25,.03M29.83,6.39c7.55,0,15.68,2.48,24.16,7.37,29.35,16.95,53.24,58.14,53.24,91.83,0,11.94-2.93,21.66-8.42,28.35l3.37-2.04c9.25-5.65,14.34-17.26,14.34-32.69,0-33.08-23.46-73.54-52.29-90.19-8.18-4.72-15.99-7.12-23.21-7.12-4.42-.06-8.79,.99-12.7,3.06-.12,.06-1.4,.78-3.15,1.77,1.54-.23,3.1-.34,4.66-.34"/><path id="n" class="r" d="M106.48,105.47c0,33.44-23.62,46.91-52.76,30.08S.95,77.98,.95,44.55,24.58-2.36,53.71,14.46s52.76,57.57,52.76,91.01"/><path id="o" class="u" d="M77.4,143.75c-7.56,0-15.68-2.48-24.16-7.37C23.88,119.43,0,78.23,0,44.54,0,20.93,11.51,6.26,30.03,6.26c7.55,0,15.68,2.48,24.16,7.37,29.35,16.95,53.24,58.14,53.24,91.83,0,23.61-11.51,38.28-30.03,38.28M30.03,8.16C12.68,8.16,1.9,22.1,1.9,44.54c0,33.08,23.46,73.54,52.29,90.19,8.18,4.72,15.99,7.12,23.21,7.12,17.35,0,28.13-13.94,28.13-36.38,0-33.08-23.46-73.54-52.29-90.18-8.18-4.72-15.99-7.12-23.2-7.12"/><path id="p" class="s" d="M61.04,114.6c-20.95-12.09-37.93-41.38-37.93-65.42,0-9.76,2.83-17.1,7.56-21.63-8.12,3.29-13.29,12.14-13.29,25.37,0,24.04,16.98,53.33,37.93,65.42,12.44,7.18,23.45,6.63,30.37,0-6.63,2.69-15.22,1.68-24.64-3.75"/><path id="q" class="u" d="M72.66,130.19c-6.08,0-12.61-2-19.42-5.93C29.7,110.68,10.55,77.65,10.55,50.64c0-18.72,9.5-30.82,24.21-30.82,6.08,0,12.61,2,19.42,5.92,23.54,13.59,42.69,46.62,42.69,73.63,0,18.72-9.51,30.82-24.22,30.82M34.77,21.72c-13.76,0-22.31,11.08-22.31,28.91,0,26.4,18.72,58.7,41.73,71.98,6.51,3.76,12.73,5.67,18.47,5.67,13.76,0,22.32-11.08,22.32-28.91,0-26.4-18.72-58.7-41.74-71.98-6.51-3.76-12.73-5.67-18.47-5.67"/></g></g></g></g></svg>